<svg xmlns="http://www.w3.org/2000/svg" version="1.1" xmlns:xlink="http://www.w3.org/1999/xlink" xmlns:svgjs="http://svgjs.com/svgjs" width="1920" height="720" preserveAspectRatio="none" viewBox="0 0 1920 720"><g mask="url(&quot;#SvgjsMask1289&quot;)" fill="none"><rect width="1920" height="720" x="0" y="0" fill="url(#SvgjsLinearGradient1290)"></rect><path d="M1505 124L1504 651" stroke-width="10" stroke="url(#SvgjsLinearGradient1291)" stroke-linecap="round" class="Up"></path><path d="M1247 575L1246 1057" stroke-width="8" stroke="url(#SvgjsLinearGradient1292)" stroke-linecap="round" class="Down"></path><path d="M1863 427L1862 144" stroke-width="6" stroke="url(#SvgjsLinearGradient1292)" stroke-linecap="round" class="Down"></path><path d="M1500 384L1499 -1" stroke-width="6" stroke="url(#SvgjsLinearGradient1291)" stroke-linecap="round" class="Up"></path><path d="M875 43L874 -368" stroke-width="6" stroke="url(#SvgjsLinearGradient1291)" stroke-linecap="round" class="Up"></path><path d="M1146 542L1145 133" stroke-width="10" stroke="url(#SvgjsLinearGradient1292)" stroke-linecap="round" class="Down"></path><path d="M1774 604L1773 840" stroke-width="6" stroke="url(#SvgjsLinearGradient1291)" stroke-linecap="round" class="Up"></path><path d="M702 6L701 343" stroke-width="10" stroke="url(#SvgjsLinearGradient1291)" stroke-linecap="round" class="Up"></path><path d="M1400 337L1399 -85" stroke-width="10" stroke="url(#SvgjsLinearGradient1292)" stroke-linecap="round" class="Down"></path><path d="M394 28L393 -394" stroke-width="8" stroke="url(#SvgjsLinearGradient1291)" stroke-linecap="round" class="Up"></path><path d="M1785 239L1784 56" stroke-width="10" stroke="url(#SvgjsLinearGradient1291)" stroke-linecap="round" class="Up"></path><path d="M1063 330L1062 -76" stroke-width="10" stroke="url(#SvgjsLinearGradient1291)" stroke-linecap="round" class="Up"></path><path d="M595 633L594 421" stroke-width="8" stroke="url(#SvgjsLinearGradient1292)" stroke-linecap="round" class="Down"></path><path d="M1556 12L1555 304" stroke-width="8" stroke="url(#SvgjsLinearGradient1291)" stroke-linecap="round" class="Up"></path><path d="M355 529L354 731" stroke-width="6" stroke="url(#SvgjsLinearGradient1292)" stroke-linecap="round" class="Down"></path><path d="M784 504L783 316" stroke-width="8" stroke="url(#SvgjsLinearGradient1292)" stroke-linecap="round" class="Down"></path><path d="M512 470L511 889" stroke-width="6" stroke="url(#SvgjsLinearGradient1292)" stroke-linecap="round" class="Down"></path><path d="M36 298L35 -12" stroke-width="6" stroke="url(#SvgjsLinearGradient1291)" stroke-linecap="round" class="Up"></path><path d="M1343 464L1342 93" stroke-width="6" stroke="url(#SvgjsLinearGradient1291)" stroke-linecap="round" class="Up"></path><path d="M1258 468L1257 34" stroke-width="6" stroke="url(#SvgjsLinearGradient1292)" stroke-linecap="round" class="Down"></path><path d="M1687 363L1686 548" stroke-width="8" stroke="url(#SvgjsLinearGradient1291)" stroke-linecap="round" class="Up"></path><path d="M596 234L595 -295" stroke-width="10" stroke="url(#SvgjsLinearGradient1291)" stroke-linecap="round" class="Up"></path><path d="M1014 693L1013 1041" stroke-width="10" stroke="url(#SvgjsLinearGradient1292)" stroke-linecap="round" class="Down"></path><path d="M1572 548L1571 1037" stroke-width="6" stroke="url(#SvgjsLinearGradient1291)" stroke-linecap="round" class="Up"></path><path d="M1182 450L1181 679" stroke-width="8" stroke="url(#SvgjsLinearGradient1291)" stroke-linecap="round" class="Up"></path><path d="M1455 18L1454 -468" stroke-width="8" stroke="url(#SvgjsLinearGradient1292)" stroke-linecap="round" class="Down"></path><path d="M38 382L37 848" stroke-width="8" stroke="url(#SvgjsLinearGradient1291)" stroke-linecap="round" class="Up"></path><path d="M29 259L28 795" stroke-width="8" stroke="url(#SvgjsLinearGradient1291)" stroke-linecap="round" class="Up"></path><path d="M358 137L357 -132" stroke-width="6" stroke="url(#SvgjsLinearGradient1291)" stroke-linecap="round" class="Up"></path><path d="M1685 399L1684 682" stroke-width="6" stroke="url(#SvgjsLinearGradient1291)" stroke-linecap="round" class="Up"></path><path d="M847 77L846 -158" stroke-width="8" stroke="url(#SvgjsLinearGradient1291)" stroke-linecap="round" class="Up"></path><path d="M1184 521L1183 171" stroke-width="6" stroke="url(#SvgjsLinearGradient1291)" stroke-linecap="round" class="Up"></path><path d="M796 61L795 464" stroke-width="6" stroke="url(#SvgjsLinearGradient1292)" stroke-linecap="round" class="Down"></path><path d="M109 52L108 -266" stroke-width="6" stroke="url(#SvgjsLinearGradient1291)" stroke-linecap="round" class="Up"></path><path d="M1174 651L1173 392" stroke-width="10" stroke="url(#SvgjsLinearGradient1291)" stroke-linecap="round" class="Up"></path><path d="M375 421L374 659" stroke-width="8" stroke="url(#SvgjsLinearGradient1292)" stroke-linecap="round" class="Down"></path><path d="M1324 594L1323 788" stroke-width="8" stroke="url(#SvgjsLinearGradient1292)" stroke-linecap="round" class="Down"></path><path d="M137 355L136 70" stroke-width="8" stroke="url(#SvgjsLinearGradient1291)" stroke-linecap="round" class="Up"></path><path d="M528 177L527 631" stroke-width="8" stroke="url(#SvgjsLinearGradient1292)" stroke-linecap="round" class="Down"></path><path d="M1347 232L1346 619" stroke-width="8" stroke="url(#SvgjsLinearGradient1291)" stroke-linecap="round" class="Up"></path><path d="M548 710L547 453" stroke-width="8" stroke="url(#SvgjsLinearGradient1292)" stroke-linecap="round" class="Down"></path><path d="M1379 500L1378 730" stroke-width="10" stroke="url(#SvgjsLinearGradient1291)" stroke-linecap="round" class="Up"></path><path d="M403 671L402 142" stroke-width="8" stroke="url(#SvgjsLinearGradient1291)" stroke-linecap="round" class="Up"></path><path d="M1768 37L1767 -416" stroke-width="10" stroke="url(#SvgjsLinearGradient1292)" stroke-linecap="round" class="Down"></path><path d="M1866 194L1865 375" stroke-width="10" stroke="url(#SvgjsLinearGradient1291)" stroke-linecap="round" class="Up"></path><path d="M975 668L974 1178" stroke-width="8" stroke="url(#SvgjsLinearGradient1292)" stroke-linecap="round" class="Down"></path><path d="M175 447L174 241" stroke-width="6" stroke="url(#SvgjsLinearGradient1291)" stroke-linecap="round" class="Up"></path><path d="M1027 533L1026 189" stroke-width="6" stroke="url(#SvgjsLinearGradient1291)" stroke-linecap="round" class="Up"></path></g><defs><mask id="SvgjsMask1289"><rect width="1920" height="720" fill="#ffffff"></rect></mask><linearGradient x1="15.62%" y1="-41.67%" x2="84.38%" y2="141.67%" gradientUnits="userSpaceOnUse" id="SvgjsLinearGradient1290"><stop stop-color="#0e2a47" offset="0"></stop><stop stop-color="rgba(158, 0, 91, 0.84)" offset="1"></stop></linearGradient><linearGradient x1="0%" y1="100%" x2="0%" y2="0%" id="SvgjsLinearGradient1291"><stop stop-color="rgba(26, 133, 130, 0)" offset="0"></stop><stop stop-color="rgba(26, 133, 130, 1)" offset="1"></stop></linearGradient><linearGradient x1="0%" y1="0%" x2="0%" y2="100%" id="SvgjsLinearGradient1292"><stop stop-color="rgba(26, 133, 130, 0)" offset="0"></stop><stop stop-color="rgba(26, 133, 130, 1)" offset="1"></stop></linearGradient></defs></svg>